<?xml version="1.0" encoding="utf-8"?>
<!-- Generator: Adobe Illustrator 21.0.2, SVG Export Plug-In . SVG Version: 6.00 Build 0)  -->
<svg version="1.1" id="Layer_1" xmlns="http://www.w3.org/2000/svg" xmlns:xlink="http://www.w3.org/1999/xlink" x="0px" y="0px"
	 viewBox="0 0 345 100" style="enable-background:new 0 0 345 100;" xml:space="preserve">
<style type="text/css">
	.st0{fill:#FFF2BB;}
	.st1{fill:#535353;}
	.st2{fill:#DFDFDF;}
	.st3{fill:#DE6356;}
	.st4{clip-path:url(#SVGID_2_);fill:#2B2B2B;}
	.st5{clip-path:url(#SVGID_2_);}
	.st6{clip-path:url(#SVGID_4_);fill:#2B2B2B;}
</style>
<g>
	<path class="st0" d="M72.4,94.7"/>
	<path class="st0" d="M50.4,50.4"/>
	<path class="st0" d="M0,50c0,27.6,22.4,50,50,50c8,0,15.6-1.9,22.4-5.3l-22-44.3H0C0,50.3,0,50.1,0,50z"/>
</g>
<path class="st1" d="M50.4,0c-0.1,0-0.3,0-0.4,0C22.4,0,0,22.4,0,50c0,0.1,0,0.3,0,0.4h50.4V0z"/>
<g>
	<path class="st2" d="M100,50c0-27.5-22.2-49.8-49.6-50v50.4l46.4,17.1C98.9,62,100,56.2,100,50z"/>
</g>
<path class="st3" d="M96.8,67.5L50.4,50.4l22,44.3C83.6,89.1,92.4,79.4,96.8,67.5z"/>
<path class="st1" d="M10,66"/>
<g id="Kompozycja_1">
	<g>
		<defs>
			<rect id="SVGID_1_" x="156" y="20" width="188.1" height="58.3"/>
		</defs>
		<clipPath id="SVGID_2_">
			<use xlink:href="#SVGID_1_"  style="overflow:visible;"/>
		</clipPath>
		<polygon class="st4" points="156,20 156,78.3 159.5,78.3 159.5,51.5 184.7,51.5 184.7,48.2 159.5,48.2 159.5,23.3 188.5,23.3 
			188.5,20 		"/>
		<g class="st5">
			<defs>
				<rect id="SVGID_3_" x="156" y="20" width="188.1" height="58.3"/>
			</defs>
			<clipPath id="SVGID_4_">
				<use xlink:href="#SVGID_3_"  style="overflow:visible;"/>
			</clipPath>
			<path class="st6" d="M202,25.3c0-2.4,1.5-3.5,3.4-3.5c1.7,0,3.4,1,3.4,3.5c0,2.3-1.6,3.4-3.4,3.4C203.5,28.7,202,27.7,202,25.3
				 M203.7,39h3.3v39.4h-3.3V39z"/>
			<path class="st6" d="M223.8,39h3.3v4.9c2.7-3.5,8.5-5.8,13.7-5.8c10.6,0,14.2,5.1,14.2,14.6v25.6h-3.3V52.7
				c0-7.5-2.5-11.4-10.9-11.4c-6.3,0-11,2.5-13.7,6.2v30.8h-3.3V39z"/>
			<path class="st6" d="M303.7,66.4h-19.3l-3.5,11.9H267l19.6-57.1h14.9l19.7,57.1h-13.9L303.7,66.4z M287.6,55.9h12.9l-6.4-21.3
				L287.6,55.9z"/>
			<path class="st6" d="M330.3,27c0-4.6,3-6.8,6.9-6.8c3.5,0,6.8,2.1,6.8,6.8c0,4.8-3.4,6.6-6.8,6.6C333.2,33.6,330.3,31.8,330.3,27
				 M331.4,39.8h12v38.5h-12V39.8z"/>
		</g>
	</g>
</g>
</svg>
